<svg width="57" height="60" viewBox="0 0 57 60" fill="none" xmlns="http://www.w3.org/2000/svg">
<path d="M55.5449 11.1352C55.0986 10.5599 54.5407 10.2444 53.9085 10.2072C53.0902 10.1516 52.3464 10.4485 51.7141 11.1166C48.5901 14.3644 48.683 25.9821 48.7574 29.1185C47.1768 28.3947 45.6333 28.0235 44.1829 28.0235C43.0299 28.0235 42.1559 28.2462 41.5609 28.4689C41.7654 27.077 42.1745 24.219 42.3791 21.1568C42.5093 19.3195 42.5464 17.6864 42.4907 16.2573C43.9969 12.7312 44.2758 8.57408 44.0155 5.6047C43.9411 4.67677 43.439 0 41.691 0C41.5423 0 41.3935 0.0371184 41.2633 0.111353C38.9947 1.28055 37.3582 4.58398 36.8933 5.62326C36.0007 5.56758 35.0524 5.53047 34.0668 5.53047C31.1101 5.53047 28.6182 5.8274 27.8 5.9202C26.6099 4.3056 23.4114 0.111353 21.868 0.111353C21.6076 0.111353 21.3845 0.204144 21.2357 0.352613C19.3389 2.13424 19.4133 6.92236 21.4217 12.026C23.523 17.3337 27.8558 23.0127 33.7692 23.0127C33.9738 23.0127 34.1969 23.0127 34.4015 22.9941H34.4387C34.6247 22.957 34.8106 22.9199 34.9966 22.8828C34.9408 25.3139 34.9408 28.0421 35.0152 31.0857C35.0895 33.7952 35.2755 36.4677 35.7962 38.8432C35.0338 38.7318 34.2527 38.639 33.5089 38.5648C33.5275 38.4534 33.5275 38.3607 33.5461 38.2493C33.918 33.7396 32.8952 29.5824 30.8683 27.3925C29.8084 26.2419 28.5438 25.6666 27.0934 25.6666C26.7586 25.6666 26.4053 25.7037 26.052 25.7594C24.49 26.0563 23.3928 26.743 22.7792 27.8379C22.0353 29.1741 22.2399 30.7331 22.4444 31.6053C22.1841 31.5868 21.9238 31.5868 21.6448 31.5868C20.994 31.5868 20.3803 31.6424 19.8038 31.7167C20.3803 28.6174 20.9754 25.2026 21.4403 21.7693V21.7136C21.7006 18.7813 21.5518 13.8262 17.6281 13.4179C17.4422 13.3993 17.2562 13.3993 17.0889 13.3993C13.6858 13.3993 12.4957 16.7399 12.1982 17.8348L7.79098 18.3174C7.19592 16.0718 5.57808 15.2552 4.20199 15.2552C2.8631 15.2552 1.56141 16.0161 0.817576 17.2224C-2.04617 21.528 3.51396 43.9468 3.7557 44.8747C4.31358 47.7328 6.00579 48.8834 6.35911 49.1061C6.65664 49.3845 7.79098 50.0897 11.5659 50.1083H11.5845C13.4069 50.1083 14.9317 49.1246 15.9917 47.2502C16.8471 47.3245 17.6281 47.3616 18.279 47.3616C18.7811 47.3616 19.3018 47.343 19.8038 47.3059C20.3431 47.2688 20.8638 47.2317 21.3659 47.176C20.901 49.5701 20.8824 52.391 22.2585 54.785C24.0623 57.9586 27.8558 59.7031 33.5647 59.9814C33.8994 60 34.2341 60 34.5503 60C38.5298 60 41.4493 58.7751 43.2159 56.3811C44.7036 54.3582 45.3358 51.463 45.0569 47.974V47.9555C45.2056 47.9555 45.3544 47.974 45.5218 47.974C48.7202 47.974 51.4166 45.9697 53.2948 42.1837C54.6709 39.3814 55.1358 36.6347 55.1544 36.5234C55.3403 35.6697 58.9479 15.5336 55.5449 11.1352ZM35.0524 21.9177C34.8106 21.9734 34.5689 22.0291 34.3271 22.0662C34.1412 22.0848 33.9552 22.0848 33.7692 22.0848C28.3207 22.0848 24.2668 16.7028 22.2771 11.6734C20.4175 6.9966 20.2501 2.50541 21.868 0.983604C22.6676 0.983604 25.271 3.91587 27.2235 6.62543L27.3909 6.84813L27.6698 6.81101C27.707 6.81101 30.5522 6.38416 34.0668 6.38416C35.1453 6.38416 36.1681 6.42128 37.1537 6.49551L37.4884 6.51407L37.6186 6.19858C37.6372 6.16146 39.3294 2.06001 41.7096 0.835138C42.0444 0.853696 42.9741 2.61677 43.1601 6.42128C43.2903 8.87102 43.0485 11.5249 42.3419 13.9561C42.1187 12.0074 41.6724 10.597 41.003 9.72471C40.5195 9.09372 39.9058 8.72255 39.2178 8.66687C38.6041 8.59264 38.0463 8.81534 37.5628 9.29787C36.1309 10.8197 35.2941 15.051 35.0524 21.9177ZM41.5795 16.0903C40.4451 18.6143 38.6413 20.6743 35.9821 21.6393C36.2239 15.3109 36.9863 11.2651 38.2136 10.0031C38.4554 9.76183 38.7157 9.63192 38.9761 9.63192C39.0132 9.63192 39.0504 9.63192 39.1062 9.63192C39.5525 9.66904 39.943 9.9103 40.2592 10.3372C41.0402 11.3208 41.4865 13.288 41.5795 16.0903ZM11.6217 49.1618V49.6257L11.6031 49.1618C7.97694 49.1432 7.10293 48.4751 7.02855 48.4009L6.97277 48.3452L6.87979 48.3081C6.86119 48.2895 5.20616 47.3801 4.66689 44.652C3.06765 38.2679 -0.595703 21.0084 1.61719 17.6864C2.19366 16.7399 3.19783 16.146 4.23919 16.146C5.65246 16.146 6.69383 17.1667 7.02855 18.8927L7.10294 19.301L12.9978 18.6514L13.0536 18.3174C13.0536 18.2802 13.8346 14.2901 17.126 14.2901C17.2748 14.2901 17.4236 14.2901 17.5723 14.3087C19.2274 14.4757 21.0869 15.8676 20.5663 21.6022V21.6393C20.0828 25.1655 19.4691 28.6731 18.874 31.828C18.093 31.9765 17.4236 32.1621 17.0145 32.292C16.0475 27.3368 12.8862 27.1513 12.7746 27.1513C12.7746 27.1513 12.6631 27.1327 12.4771 27.1327C11.8634 27.1327 10.2456 27.2626 8.68358 28.4875C6.76822 29.9907 5.61528 32.5518 5.24336 36.1151C4.92724 39.1401 5.63387 41.627 7.34468 43.52C9.37162 45.7655 12.4027 46.712 15.0247 47.1018C14.2995 48.1967 13.2209 49.1618 11.6217 49.1618ZM16.3078 43.7612C16.3078 43.7798 16.1033 44.9675 15.5082 46.2295C13.0722 45.914 9.98528 45.0603 8.03273 42.9075C6.50787 41.2187 5.87561 38.9731 6.15455 36.2079C6.91697 28.6359 11.194 28.0421 12.4771 28.0421C12.5887 28.0421 12.6631 28.0421 12.7003 28.0421C12.8118 28.0421 15.471 28.2462 16.1963 32.9415L16.2892 33.4983L16.8099 33.3127C16.8285 33.3127 17.5909 33.0343 18.6881 32.7931C17.4794 39.0288 16.345 43.6499 16.3264 43.7241L16.3078 43.7612ZM19.7852 46.3594C19.3018 46.3965 18.7997 46.3965 18.3162 46.3965C17.8327 46.3965 17.2004 46.378 16.4752 46.3223C16.9959 45.1345 17.1818 44.0767 17.219 43.9282C17.2934 43.5942 18.4463 38.8803 19.6551 32.626C20.2873 32.5332 20.9754 32.459 21.682 32.459C22.1655 32.459 22.6118 32.4961 23.0395 32.5518L23.8019 32.6632L23.523 31.9394C23.523 31.9208 22.7234 29.8237 23.5974 28.2462C24.0623 27.4111 24.9549 26.8543 26.238 26.6316C27.7814 26.3532 29.1203 26.7986 30.2175 27.9864C32.077 29.9907 33.0068 33.888 32.6535 38.138C32.6535 38.2307 32.6349 38.3421 32.6163 38.4349C31.3704 38.305 30.3476 38.2122 29.9199 38.1936C29.4922 37.7111 28.0975 36.3563 26.1822 36.3563C25.8475 36.3563 25.5127 36.3934 25.178 36.4862C22.5374 37.1729 23.0581 40.9403 23.2069 41.7754C22.9465 42.2951 22.1283 44.0025 21.589 46.1924C21.0312 46.2666 20.4175 46.3223 19.7852 46.3594ZM24.1552 41.7569C24.1552 41.7198 23.3556 37.8967 25.4198 37.3771C25.6801 37.3214 25.9404 37.2843 26.1822 37.2843C27.986 37.2843 29.3249 38.9174 29.3435 38.936L29.4736 39.0844L29.6782 39.103C30.3476 39.1587 31.3518 39.2515 32.4675 39.3628C31.6307 43.0374 28.3951 45.2459 22.6118 46.081C23.2069 43.7983 24.0995 42.1095 24.1181 42.0724L24.1924 41.9239L24.1552 41.7569ZM42.5278 55.8429C40.9472 57.9957 38.288 59.0906 34.6061 59.0906C34.2899 59.0906 33.9738 59.0906 33.6577 59.0721C28.2835 58.7937 24.7317 57.1976 23.0953 54.3396C21.8122 52.094 21.9052 49.3659 22.3887 47.0646C28.8972 46.2109 32.5047 43.7055 33.3973 39.4742C34.2899 39.567 35.2011 39.6783 36.0565 39.8082C37.1723 44.0396 39.4595 47.1946 44.1829 47.8812C44.3874 50.3866 44.2015 53.5416 42.5278 55.8429ZM43.3833 43.5942C43.4019 43.6313 43.8295 45.0046 44.0713 46.9162C40.1848 46.2666 38.1021 43.7612 37.0235 39.9381C38.195 40.1237 39.1434 40.3464 39.5897 40.5691L39.8872 40.7176L40.129 40.4763C40.129 40.4763 41.0402 39.5299 42.1745 39.5299C42.6208 39.5299 43.0671 39.6969 43.4762 39.9938C43.9039 40.3279 44.1457 40.699 44.1829 41.1445C44.2944 42.1466 43.4576 43.1488 43.4576 43.1488L43.2903 43.3344L43.3833 43.5942ZM54.2804 36.3749C54.2804 36.3934 53.8341 39.103 52.5138 41.7754C50.6728 45.4872 48.1438 47.2688 45.0197 47.0275C44.8151 45.3573 44.4804 44.0396 44.3316 43.5385C44.6292 43.1302 45.2242 42.1281 45.1127 41.0517C45.0383 40.3464 44.6664 39.7525 44.0527 39.27C43.4762 38.8432 42.8626 38.6205 42.1931 38.6205C41.0588 38.6205 40.1476 39.27 39.7199 39.6226C39.069 39.3814 38.0091 39.1587 36.8004 38.9731C36.2797 36.7089 36.0565 34.0365 35.9821 31.0486C35.9078 27.9307 35.8892 25.1098 35.9636 22.623C38.5298 21.8064 40.3522 20.099 41.6167 18.0204C41.5981 18.9669 41.5609 19.9876 41.4865 21.0826C41.2075 25.3325 40.5381 29.1556 40.5381 29.1927L40.3521 30.2505L41.2447 29.6381C41.2633 29.6381 42.3047 28.9329 44.2015 28.9329C45.7263 28.9329 47.3628 29.3783 49.055 30.2691L49.7616 30.6403L49.7244 29.8423C49.7244 29.8051 49.5756 26.0934 49.836 22.0105C50.1893 16.6842 51.0633 13.1395 52.4022 11.7476C52.8485 11.2836 53.3134 11.0795 53.8712 11.1166C54.2432 11.1352 54.5593 11.3393 54.8568 11.6919C57.9809 15.7748 54.3176 36.1707 54.2804 36.3749Z" fill="#6600FF"/>
</svg>
