<svg width="66" height="70" viewBox="0 0 66 70" fill="none" xmlns="http://www.w3.org/2000/svg">
<path d="M64.3151 12.991C63.7983 12.3198 63.1524 11.9517 62.4203 11.9084C61.4729 11.8435 60.6116 12.1899 59.8795 12.9694C56.2622 16.7584 56.3698 30.3124 56.456 33.9715C54.6257 33.1271 52.8386 32.6941 51.1591 32.6941C49.8241 32.6941 48.8121 32.9539 48.1231 33.2137C48.36 31.5899 48.8337 28.2555 49.0705 24.683C49.2212 22.5394 49.2643 20.6341 49.1997 18.9669C50.9438 14.8531 51.2668 10.0031 50.9653 6.53882C50.8792 5.45624 50.2978 0 48.2738 0C48.1016 0 47.9293 0.0433048 47.7786 0.129912C45.1517 1.49397 43.2569 5.34797 42.7186 6.56047C41.6851 6.49551 40.5869 6.45221 39.4457 6.45221C36.0222 6.45221 33.1369 6.79864 32.1895 6.9069C30.8114 5.0232 27.1079 0.129912 25.3208 0.129912C25.0193 0.129912 24.761 0.238168 24.5887 0.411381C22.3925 2.48995 22.4786 8.07609 24.804 14.0303C27.2371 20.2227 32.2541 26.8481 39.1012 26.8481C39.3381 26.8481 39.5965 26.8481 39.8333 26.8265H39.8764C40.0917 26.7832 40.307 26.7399 40.5223 26.6966C40.4577 29.5329 40.4577 32.7157 40.5439 36.2666C40.63 39.4278 40.8453 42.5456 41.4482 45.317C40.5654 45.1871 39.6611 45.0789 38.7998 44.9923C38.8213 44.8624 38.8213 44.7541 38.8429 44.6242C39.2735 39.3628 38.0892 34.5128 35.7423 31.9579C34.5149 30.6155 33.0508 29.9443 31.3713 29.9443C30.9837 29.9443 30.5746 29.9876 30.1655 30.0526C28.3568 30.399 27.0864 31.2001 26.3759 32.4776C25.5146 34.0365 25.7514 35.8552 25.9883 36.8729C25.6868 36.8512 25.3854 36.8512 25.0624 36.8512C24.3088 36.8512 23.5982 36.9162 22.9308 37.0028C23.5982 33.387 24.2873 29.403 24.8256 25.3975V25.3325C25.127 21.9115 24.9548 16.1305 20.4115 15.6542C20.1962 15.6325 19.9809 15.6325 19.7871 15.6325C15.8468 15.6325 14.4687 19.5299 14.1242 20.8073L9.02114 21.3702C8.33212 18.7504 6.45883 17.7977 4.86547 17.7977C3.31517 17.7977 1.80794 18.6854 0.946667 20.0928C-2.36925 25.116 4.06879 51.2713 4.34871 52.3539C4.99467 55.6882 6.95407 57.0306 7.36318 57.2904C7.70769 57.6152 9.02114 58.438 13.3921 58.4596H13.4136C15.5238 58.4596 17.2894 57.3121 18.5167 55.1253C19.5072 55.2119 20.4115 55.2552 21.1651 55.2552C21.7465 55.2552 22.3494 55.2335 22.9308 55.1902C23.5552 55.1469 24.1581 55.1036 24.7394 55.0387C24.2011 57.8317 24.1796 61.1228 25.773 63.9159C27.8616 67.6183 32.2541 69.6536 38.8644 69.9784C39.252 70 39.6395 70 40.0056 70C44.6134 70 47.9939 68.571 50.0395 65.7779C51.762 63.4179 52.4941 60.0402 52.1711 55.9697V55.948C52.3434 55.948 52.5156 55.9697 52.7094 55.9697C56.4129 55.9697 59.535 53.6313 61.7097 49.2144C63.3031 45.9449 63.8414 42.7405 63.8629 42.6106C64.0783 41.6146 68.2554 18.1225 64.3151 12.991ZM40.5869 25.5707C40.307 25.6356 40.0271 25.7006 39.7472 25.7439C39.5319 25.7655 39.3165 25.7655 39.1012 25.7655C32.7924 25.7655 28.0984 19.4865 25.7945 13.6189C23.6413 8.1627 23.4475 2.92298 25.3208 1.14754C26.2467 1.14754 29.2611 4.56852 31.522 7.72967L31.7158 7.98948L32.0388 7.94618C32.0818 7.94618 35.3762 7.44819 39.4457 7.44819C40.6946 7.44819 41.8788 7.49149 43.02 7.5781L43.4076 7.59975L43.5583 7.23167C43.5799 7.18837 45.5393 2.40334 48.2954 0.974327C48.6829 0.995979 49.7595 3.05289 49.9748 7.4915C50.1256 10.3495 49.8456 13.4457 49.0274 16.2821C48.7691 14.0087 48.2523 12.3631 47.4771 11.3455C46.9173 10.6093 46.2068 10.1763 45.4101 10.1114C44.6995 10.0247 44.0536 10.2846 43.4937 10.8475C41.8358 12.623 40.8668 17.5595 40.5869 25.5707ZM48.1446 18.772C46.8312 21.7167 44.7426 24.12 41.6635 25.2459C41.9434 17.8627 42.8263 13.1426 44.2474 11.6703C44.5273 11.3888 44.8287 11.2372 45.1302 11.2372C45.1732 11.2372 45.2163 11.2372 45.2809 11.2372C45.7977 11.2805 46.2498 11.562 46.6159 12.06C47.5202 13.2076 48.037 15.5026 48.1446 18.772ZM13.4567 57.3554V57.8967L13.4352 57.3554C9.23646 57.3338 8.22445 56.5543 8.13832 56.4677L8.07373 56.4027L7.96607 56.3594C7.94454 56.3378 6.02819 55.2768 5.40376 52.094C3.55202 44.6458 -0.689762 24.5097 1.87254 20.6341C2.54003 19.5298 3.70275 18.837 4.90853 18.837C6.54496 18.837 7.75075 20.0278 8.13832 22.0414L8.22445 22.5178L15.0501 21.76L15.1147 21.3702C15.1147 21.3269 16.019 16.6718 19.8302 16.6718C20.0024 16.6718 20.1747 16.6718 20.3469 16.6935C22.2633 16.8883 24.4165 18.5122 23.8136 25.2026V25.2459C23.2537 29.3597 22.5432 33.4519 21.8542 37.1327C20.9498 37.3059 20.1747 37.5224 19.701 37.674C18.5813 31.893 14.9209 31.6765 14.7917 31.6765C14.7917 31.6765 14.6625 31.6548 14.4472 31.6548C13.7366 31.6548 11.8634 31.8064 10.0547 33.2354C7.83688 34.9892 6.5019 37.9771 6.07126 42.1342C5.70522 45.6635 6.52343 48.5648 8.50437 50.7733C10.8513 53.3931 14.361 54.4974 17.397 54.9521C16.5573 56.2295 15.3085 57.3554 13.4567 57.3554ZM18.8828 51.0547C18.8828 51.0764 18.6459 52.4621 17.9569 53.9344C15.1362 53.5663 11.5619 52.5704 9.30105 50.0588C7.53543 48.0885 6.80334 45.4686 7.12632 42.2425C8.00913 33.4086 12.9615 32.7157 14.4472 32.7157C14.5764 32.7157 14.6625 32.7157 14.7056 32.7157C14.8348 32.7157 17.9138 32.9539 18.7536 38.4318L18.8612 39.0814L19.4641 38.8648C19.4857 38.8648 20.3685 38.5401 21.6388 38.2586C20.2393 45.5336 18.9258 50.9248 18.9043 51.0114L18.8828 51.0547ZM22.9092 54.086C22.3494 54.1293 21.768 54.1293 21.2082 54.1293C20.6484 54.1293 19.9163 54.1076 19.0765 54.0427C19.6794 52.657 19.8948 51.4228 19.9378 51.2496C20.0239 50.8599 21.3589 45.3603 22.7585 38.0637C23.4906 37.9555 24.2873 37.8689 25.1055 37.8689C25.6653 37.8689 26.1821 37.9122 26.6773 37.9771L27.5601 38.107L27.2371 37.2626C27.2371 37.2409 26.3113 34.7943 27.3233 32.9539C27.8616 31.9796 28.8951 31.33 30.3808 31.0702C32.1679 30.7454 33.7183 31.2651 34.9886 32.6508C37.1418 34.9892 38.2184 39.536 37.8093 44.4943C37.8093 44.6025 37.7878 44.7324 37.7663 44.8407C36.3236 44.6891 35.1394 44.5809 34.6441 44.5592C34.1489 43.9963 32.534 42.4157 30.3162 42.4157C29.9286 42.4157 29.5411 42.459 29.1535 42.5673C26.096 43.3684 26.6988 47.7637 26.8711 48.738C26.5696 49.3443 25.6222 51.3362 24.9978 53.8911C24.3519 53.9777 23.6413 54.0427 22.9092 54.086ZM27.9692 48.7164C27.9692 48.6731 27.0434 44.2128 29.4334 43.6066C29.7348 43.5416 30.0363 43.4983 30.3162 43.4983C32.4048 43.4983 33.9551 45.4036 33.9766 45.4253L34.1274 45.5985L34.3642 45.6202C35.1394 45.6851 36.3021 45.7934 37.594 45.9233C36.6251 50.2103 32.8785 52.7869 26.1821 53.7612C26.8711 51.098 27.9046 49.1278 27.9262 49.0844L28.0123 48.9112L27.9692 48.7164ZM49.2428 65.15C47.4125 67.6616 44.3335 68.9391 40.0702 68.9391C39.7041 68.9391 39.3381 68.9391 38.972 68.9174C32.7493 68.5926 28.6367 66.7306 26.7419 63.3962C25.2562 60.7764 25.3639 57.5936 25.9237 54.9088C33.4599 53.9128 37.6371 50.9898 38.6706 46.0532C39.7041 46.1615 40.7592 46.2914 41.7497 46.4429C43.0416 51.3795 45.69 55.0603 51.1591 55.8614C51.396 58.7844 51.1806 62.4652 49.2428 65.15ZM50.2332 50.8599C50.2548 50.9032 50.75 52.5054 51.0299 54.7355C46.5297 53.9777 44.1182 51.0548 42.8693 46.5945C44.2258 46.811 45.324 47.0708 45.8407 47.3307L46.1852 47.5039L46.4651 47.2224C46.4651 47.2224 47.5202 46.1182 48.8337 46.1182C49.3504 46.1182 49.8672 46.313 50.3409 46.6595C50.8361 47.0492 51.116 47.4822 51.1591 48.0019C51.2883 49.1711 50.3194 50.3402 50.3194 50.3402L50.1256 50.5568L50.2332 50.8599ZM62.851 42.4374C62.851 42.459 62.3342 45.6202 60.8054 48.738C58.6738 53.0684 55.7454 55.1469 52.128 54.8655C51.8912 52.9168 51.5036 51.3795 51.3314 50.7949C51.6759 50.3186 52.3649 49.1494 52.2357 47.8936C52.1496 47.0708 51.7189 46.378 51.0084 45.815C50.3409 45.317 49.6303 45.0572 48.8552 45.0572C47.5418 45.0572 46.4867 45.815 45.9914 46.2264C45.2378 45.9449 44.0105 45.6851 42.6109 45.4686C42.008 42.8271 41.7497 39.7092 41.6635 36.2233C41.5774 32.5858 41.5559 29.2948 41.642 26.3934C44.6134 25.4408 46.7235 23.4488 48.1877 21.0238C48.1662 22.1281 48.1231 23.3189 48.037 24.5964C47.714 29.5546 46.9389 34.0148 46.9389 34.0582L46.7235 35.2923L47.7571 34.5778C47.7786 34.5778 48.9844 33.755 51.1806 33.755C52.9462 33.755 54.8411 34.2747 56.8005 35.3139L57.6187 35.747L57.5756 34.816C57.5756 34.7727 57.4034 30.4423 57.7048 25.6789C58.1139 19.4649 59.1259 15.3294 60.6762 13.7055C61.193 13.1642 61.7313 12.9261 62.3772 12.9694C62.8079 12.991 63.1739 13.2292 63.5184 13.6406C67.1358 18.404 62.894 42.1992 62.851 42.4374Z" fill="white"/>
</svg>
